<mxfile host="app.diagrams.net" modified="2023-11-29T20:33:28.013Z" agent="Mozilla/5.0 (Windows NT 10.0; Win64; x64; rv:120.0) Gecko/20100101 Firefox/120.0" version="22.1.5" etag="3ggF91VHUTZ3SFxF43XE" type="github">
  <diagram name="Page-1" id="ZLThdicA-OdPu5vBrqyY">
    <mxGraphModel>
      <root>
        <mxCell id="0" />
        <mxCell id="1" parent="0" />
      </root>
    </mxGraphModel>
  </diagram>
</mxfile>
